<svg id="Ebene_1" data-name="Ebene 1" xmlns="http://www.w3.org/2000/svg" width="283" height="283" xmlns:xlink="http://www.w3.org/1999/xlink" viewBox="0 0 283.46 283.46"><defs><style>.cls-1{fill:none;}.cls-2{clip-path:url(#clip-path);}.cls-3{fill:#94130d;}.cls-4{fill:#b30d14;}.cls-5{fill:#bf4b36;}</style><clipPath id="clip-path" transform="translate(-155 -279.89)"><polygon class="cls-1" points="155 279.89 155 563.35 438.46 563.35 438.46 279.89 155 279.89 155 279.89"/></clipPath></defs><g class="cls-2"><polygon class="cls-3" points="283.46 283.46 0 283.46 0 0 283.46 0 283.46 283.46 283.46 283.46"/><path class="cls-4" d="M438.46,421.62v-5L301.74,279.89h-5v15l126.7,126.7ZM315.88,279.89,438.46,402.47v-20L335.92,279.89Zm34.18,0,88.4,88.4v-20L370.1,279.89Zm34.18,0,54.22,54.22v-20l-34.17-34.18Zm34.18,0,20,20v-20ZM296.73,411.6l-10,10,10,10,10-10-10-10Zm0,34.18-24.16-24.16h-20l44.2,44.2v-20Zm0,34.18L238.4,421.62H218.35L296.73,500V480Zm0,34.18-92.51-92.52H184.17L296.73,534.18v-20Zm0,34.18L170,421.62H155v5L291.72,563.35h5v-15Zm-19.15,15L155,440.77v20L257.54,563.35Zm-34.17,0L155,475v20l68.36,68.36Zm-34.18,0L155,509.13v20l34.18,34.18Zm-34.18,0-20.05-20v20ZM296.73,397.46l24.16,24.16h20.05l-44.21-44.2v20Zm0-34.18,58.34,58.34h20.05l-78.39-78.38v20Zm0-34.18,92.52,92.52H409.3L296.73,309.06v20Z" transform="translate(-155 -279.89)"/><path class="cls-5" d="M438.46,563.35v-20l-20,20Zm-34.17,0,34.17-34.18v-20l-54.22,54.22Zm-34.18,0L438.46,495V475l-88.4,88.4Zm-34.18,0L438.46,460.81v-20L315.88,563.35Zm-34.19,0L438.46,426.63v-5h-15l-126.7,126.7v15Zm-5-29.17L409.3,421.62H389.25l-92.52,92.52v20Zm0-34.18,78.39-78.38H355.07L296.73,480v20Zm0-34.18,44.21-44.2H320.89l-24.16,24.16v20Zm-24.15-44.2,24.15-24.16v-20l-44.2,44.2Zm-34.18,0,58.33-58.34v-20l-78.38,78.38Zm-34.18,0,92.51-92.52v-20L184.17,421.62Zm-34.19,0,126.7-126.7v-15h-5L155,416.61v5Zm-15-19.15L277.58,279.89h-20L155,382.43v20Zm0-34.18,88.41-88.4h-20L155,348.25v20Zm0-34.18,54.23-54.22h-20L155,314.07v20Zm0-34.18,20.05-20H155v20Z" transform="translate(-155 -279.89)"/></g></svg>